<svg width="936" height="885" viewBox="0 0 936 885" fill="none" xmlns="http://www.w3.org/2000/svg">
<mask id="mask0_1_143" style="mask-type:luminance" maskUnits="userSpaceOnUse" x="0" y="0" width="936" height="885">
<path d="M935.805 0H0V884.423H935.805V0Z" fill="white"/>
</mask>
<g mask="url(#mask0_1_143)">
<path d="M475.196 765.554C671.203 765.554 830.1 760.879 830.1 755.113C830.1 749.346 671.203 744.671 475.196 744.671C279.189 744.671 120.294 749.346 120.294 755.113C120.294 760.879 279.189 765.554 475.196 765.554Z" fill="#F5F8FF"/>
<path d="M523.693 750.889H282.726C263.181 750.889 250.023 735.044 253.337 715.499L350.386 143.148C353.7 123.602 372.232 107.757 391.777 107.757H632.744C652.289 107.757 665.447 123.602 662.133 143.148L565.084 715.499C561.77 735.044 543.238 750.889 523.693 750.889Z" fill="#5CA4E6"/>
<path d="M493.596 750.889H252.629C233.084 750.889 219.926 735.044 223.24 715.499L320.289 143.148C323.603 123.602 342.134 107.757 361.68 107.757H602.646C622.192 107.757 635.35 123.602 632.036 143.148L534.987 715.499C531.673 735.044 513.141 750.889 493.596 750.889Z" fill="#D1E8F7"/>
<path d="M494.981 731.754H257.733C247.584 731.754 240.752 723.527 242.473 713.378L338.803 145.268C340.524 135.119 350.146 126.892 360.295 126.892H597.543C607.692 126.892 614.524 135.119 612.803 145.268L516.473 713.378C514.752 723.527 505.13 731.754 494.981 731.754Z" fill="white"/>
<path d="M517.437 318.307H290.588L314.231 187.692C315.78 179.728 323.492 173.272 331.455 173.272H545.645C553.609 173.272 558.809 179.728 557.26 187.692L534.661 303.888C533.112 311.851 525.401 318.307 517.437 318.307Z" fill="url(#paint0_linear_1_143)"/>
<path d="M499.153 301.5H159.546C151.583 301.5 146.382 295.044 147.931 287.08L170.53 170.884C172.079 162.92 179.79 156.464 187.754 156.464H527.361C535.324 156.464 540.525 162.92 538.976 170.884L516.377 287.08C514.828 295.044 507.116 301.5 499.153 301.5Z" fill="#FEBB94"/>
<path d="M477.486 716.942L266.854 717.942C258.89 717.942 253.69 711.486 255.239 703.523L277.838 587.327C279.387 579.363 287.098 572.907 295.062 572.907L505.694 571.907C513.658 571.907 518.858 578.363 517.309 586.327L494.71 702.523C493.161 710.486 485.45 716.942 477.486 716.942Z" fill="#FEBB94"/>
<path d="M290.02 681.756C296.013 634.879 340.553 596.877 389.503 596.877C438.453 596.877 473.276 634.879 467.283 681.756" stroke="#FF967C" stroke-width="16.5208" stroke-miterlimit="10" stroke-linecap="round"/>
<path d="M290.02 681.756C296.013 634.879 340.553 596.877 389.503 596.877C413.73 596.877 434.497 606.186 448.567 621.273" stroke="white" stroke-width="16.5208" stroke-miterlimit="10" stroke-linecap="round"/>
<path d="M452.298 555.479H301.48C293.43 555.479 287.989 548.953 289.328 540.903L321.18 349.311C322.518 341.261 330.129 334.736 338.179 334.736H488.996C497.046 334.736 502.487 341.261 501.149 349.311L469.296 540.903C467.958 548.953 460.348 555.479 452.298 555.479Z" fill="url(#paint1_linear_1_143)"/>
<path d="M347.922 436.051H327.359C326.228 436.09 325.143 436.512 324.284 437.248C323.425 437.985 322.842 438.993 322.632 440.105L311.464 507.282C311.355 507.779 311.362 508.295 311.483 508.789C311.605 509.283 311.837 509.743 312.163 510.134C312.489 510.525 312.9 510.837 313.364 511.045C313.829 511.253 314.335 511.352 314.843 511.335H335.406C336.538 511.297 337.622 510.875 338.481 510.138C339.341 509.401 339.923 508.394 340.134 507.282L351.302 440.105C351.41 439.608 351.403 439.092 351.282 438.598C351.161 438.103 350.928 437.643 350.602 437.252C350.277 436.861 349.866 436.55 349.401 436.342C348.937 436.134 348.431 436.034 347.922 436.051Z" fill="white"/>
<path d="M385.44 459.036H364.877C363.745 459.074 362.661 459.496 361.802 460.233C360.942 460.97 360.36 461.977 360.149 463.089L352.802 507.282C352.694 507.779 352.701 508.295 352.822 508.789C352.943 509.283 353.176 509.743 353.502 510.134C353.828 510.525 354.238 510.837 354.703 511.045C355.167 511.253 355.673 511.352 356.182 511.335H376.745C377.876 511.297 378.961 510.875 379.82 510.138C380.679 509.401 381.262 508.394 381.472 507.282L388.819 463.089C388.928 462.592 388.921 462.076 388.8 461.582C388.678 461.088 388.446 460.628 388.12 460.237C387.794 459.846 387.383 459.534 386.919 459.326C386.454 459.118 385.948 459.019 385.44 459.036Z" fill="white"/>
<path d="M435.105 394.367H414.542C413.411 394.405 412.327 394.827 411.467 395.564C410.608 396.301 410.025 397.308 409.815 398.42L391.717 507.282C391.609 507.779 391.615 508.295 391.737 508.789C391.858 509.283 392.09 509.743 392.416 510.134C392.742 510.525 393.153 510.837 393.617 511.045C394.082 511.253 394.588 511.352 395.096 511.335H415.659C416.791 511.297 417.875 510.875 418.734 510.138C419.594 509.401 420.176 508.394 420.387 507.282L438.485 398.42C438.593 397.923 438.586 397.407 438.465 396.913C438.344 396.419 438.112 395.959 437.786 395.568C437.46 395.177 437.049 394.865 436.584 394.657C436.12 394.449 435.614 394.35 435.105 394.367Z" fill="white"/>
<path d="M470.491 422.586H449.928C448.797 422.624 447.712 423.046 446.853 423.783C445.994 424.52 445.411 425.527 445.201 426.639L431.794 507.282C431.686 507.779 431.692 508.295 431.814 508.789C431.935 509.283 432.167 509.743 432.493 510.134C432.819 510.525 433.23 510.837 433.694 511.045C434.159 511.253 434.665 511.352 435.173 511.335H455.736C456.868 511.297 457.952 510.875 458.812 510.138C459.671 509.401 460.254 508.394 460.464 507.282L473.871 426.639C473.979 426.142 473.972 425.626 473.851 425.132C473.73 424.638 473.497 424.178 473.171 423.787C472.845 423.396 472.435 423.084 471.97 422.876C471.506 422.668 471 422.569 470.491 422.586Z" fill="white"/>
<path d="M336.231 358.306H391.905" stroke="white" stroke-width="10" stroke-miterlimit="10" stroke-linecap="round"/>
<path d="M333.088 377.21H360.925" stroke="white" stroke-width="10" stroke-miterlimit="10" stroke-linecap="round"/>
<path opacity="0.6" d="M317.465 525.025H328.233" stroke="white" stroke-width="6" stroke-miterlimit="10" stroke-linecap="round"/>
<path opacity="0.6" d="M358.804 525.025H369.571" stroke="white" stroke-width="6" stroke-miterlimit="10" stroke-linecap="round"/>
<path opacity="0.6" d="M397.718 525.025H408.486" stroke="white" stroke-width="6" stroke-miterlimit="10" stroke-linecap="round"/>
<path opacity="0.6" d="M437.795 525.025H448.563" stroke="white" stroke-width="6" stroke-miterlimit="10" stroke-linecap="round"/>
<path d="M650.128 555.479H499.311C491.261 555.479 485.82 548.953 487.158 540.903L519.011 349.311C520.349 341.261 527.959 334.736 536.009 334.736H686.827C694.877 334.736 700.318 341.261 698.979 349.311L667.127 540.903C665.789 548.953 658.178 555.479 650.128 555.479Z" fill="url(#paint2_linear_1_143)"/>
<path d="M541.846 464.934H521.283C520.152 464.972 519.067 465.394 518.208 466.131C517.349 466.868 516.766 467.875 516.556 468.987L509.294 507.282C509.186 507.779 509.193 508.295 509.314 508.789C509.435 509.283 509.668 509.743 509.994 510.134C510.32 510.525 510.73 510.837 511.195 511.045C511.659 511.253 512.165 511.352 512.674 511.335H533.237C534.368 511.297 535.453 510.875 536.312 510.138C537.171 509.401 537.754 508.394 537.964 507.282L545.226 468.987C545.334 468.49 545.327 467.974 545.206 467.48C545.085 466.986 544.852 466.526 544.526 466.135C544.2 465.744 543.79 465.432 543.325 465.224C542.861 465.016 542.355 464.917 541.846 464.934Z" fill="white"/>
<path d="M591.036 405.635H570.473C569.342 405.673 568.258 406.095 567.398 406.832C566.539 407.569 565.956 408.576 565.746 409.688L550.633 507.282C550.525 507.779 550.532 508.295 550.653 508.789C550.774 509.283 551.006 509.743 551.332 510.134C551.658 510.525 552.069 510.837 552.534 511.045C552.998 511.253 553.504 511.352 554.013 511.335H574.576C575.707 511.297 576.791 510.875 577.651 510.138C578.51 509.401 579.093 508.394 579.303 507.282L594.416 409.688C594.524 409.191 594.517 408.675 594.396 408.181C594.275 407.687 594.043 407.227 593.717 406.836C593.391 406.445 592.98 406.133 592.515 405.925C592.051 405.717 591.545 405.618 591.036 405.635Z" fill="white"/>
<path d="M626.132 433.5H605.569C604.438 433.538 603.354 433.96 602.494 434.697C601.635 435.434 601.052 436.441 600.842 437.553L589.547 507.282C589.439 507.779 589.446 508.295 589.567 508.789C589.688 509.283 589.921 509.743 590.247 510.134C590.573 510.525 590.984 510.837 591.448 511.045C591.913 511.253 592.418 511.352 592.927 511.335H613.49C614.621 511.297 615.706 510.875 616.565 510.138C617.424 509.401 618.007 508.394 618.217 507.282L629.512 437.553C629.62 437.056 629.613 436.54 629.492 436.046C629.371 435.552 629.139 435.092 628.813 434.701C628.487 434.31 628.076 433.998 627.611 433.79C627.147 433.582 626.641 433.483 626.132 433.5Z" fill="white"/>
<path d="M668.322 422.586H647.759C646.627 422.624 645.543 423.046 644.684 423.783C643.824 424.52 643.242 425.527 643.031 426.639L629.625 507.282C629.516 507.779 629.523 508.295 629.644 508.789C629.765 509.283 629.998 509.743 630.324 510.134C630.65 510.525 631.061 510.837 631.525 511.045C631.99 511.253 632.495 511.352 633.004 511.335H653.567C654.698 511.297 655.783 510.875 656.642 510.138C657.501 509.401 658.084 508.394 658.294 507.282L671.701 426.639C671.809 426.142 671.803 425.626 671.682 425.132C671.56 424.638 671.328 424.178 671.002 423.787C670.676 423.396 670.265 423.084 669.801 422.876C669.336 422.668 668.83 422.569 668.322 422.586Z" fill="white"/>
<path d="M534.062 358.306H589.735" stroke="white" stroke-width="10" stroke-miterlimit="10" stroke-linecap="round"/>
<path d="M530.919 377.21H558.756" stroke="white" stroke-width="10" stroke-miterlimit="10" stroke-linecap="round"/>
<path opacity="0.6" d="M515.296 525.025H526.063" stroke="white" stroke-width="6" stroke-miterlimit="10" stroke-linecap="round"/>
<path opacity="0.6" d="M556.635 525.025H567.402" stroke="white" stroke-width="6" stroke-miterlimit="10" stroke-linecap="round"/>
<path opacity="0.6" d="M595.549 525.025H606.317" stroke="white" stroke-width="6" stroke-miterlimit="10" stroke-linecap="round"/>
<path opacity="0.6" d="M635.626 525.025H646.394" stroke="white" stroke-width="6" stroke-miterlimit="10" stroke-linecap="round"/>
<path d="M9.95597 770.799L52.782 860.39L47.471 862.929C45.678 863.786 43.619 863.896 41.746 863.234C39.873 862.573 38.339 861.194 37.483 859.402L1.11598 783.327C0.259978 781.534 0.149986 779.475 0.810986 777.602C1.47299 775.729 2.85099 774.195 4.64399 773.338L9.95597 770.799Z" fill="#71C8EA"/>
<path d="M56.581 750.569L27.025 762.787L43.606 786.235L69.808 778.24L56.581 750.569Z" fill="#FFCCB3"/>
<path d="M37.702 763.723C37.702 763.723 49.241 781.545 50.982 791.504C52.723 801.462 58.684 851.836 57.08 856.377C55.927 859.641 51.739 861.042 49.082 861.338C48.499 861.4 47.911 861.279 47.4 860.992C46.889 860.705 46.479 860.266 46.229 859.736L7.35399 778.411C6.70399 777.054 6.61299 775.497 7.09899 774.074C7.58599 772.65 8.61098 771.475 9.95598 770.799C15.334 768.097 23.561 764.048 27.025 762.787C32.379 760.838 35.913 760.85 37.702 763.723Z" fill="#5661AE"/>
<path d="M246.929 806.359L206.766 880.499C205.819 882.246 204.218 883.545 202.314 884.111C200.41 884.677 198.359 884.464 196.612 883.517L191.435 880.713L238.735 793.401L243.911 796.205C245.658 797.151 246.957 798.752 247.523 800.657C248.089 802.561 247.876 804.612 246.929 806.359Z" fill="#71C8EA"/>
<path d="M193.191 770.84L222.092 784.536L204.347 807.116L178.582 797.807L193.191 770.84Z" fill="#FFCCB3"/>
<path d="M211.381 784.931C211.381 784.931 198.956 802.147 196.714 812.005C194.473 821.863 185.974 871.871 187.346 876.488C188.332 879.806 192.444 881.416 195.083 881.846C195.662 881.938 196.255 881.847 196.78 881.586C197.305 881.325 197.736 880.907 198.013 880.391L240.949 801.134C241.666 799.812 241.836 798.261 241.422 796.815C241.008 795.369 240.043 794.143 238.735 793.401C233.5 790.43 225.487 785.97 222.092 784.536C216.843 782.319 213.313 782.153 211.381 784.931Z" fill="#5661AE"/>
<path d="M280.26 665.227C280.26 665.227 291.324 720.17 282.738 730.936L63.953 786.958L45.296 752.011L173.057 694.036L198.644 658.966L280.26 665.227Z" fill="#D1E8F7"/>
<path d="M224.896 704.432L176.624 720.577L154.099 730.022L183.391 756.375L157.203 762.291L85.772 704.432H224.896Z" fill="#5CA4E6"/>
<path d="M59.005 747.428L60.49 752.588L94.41 779.064L126.273 771.289C126.273 771.289 64.806 742.037 59.005 747.428Z" fill="#5CA4E6"/>
<path d="M120.411 662.022C120.411 662.022 58.546 658.666 27.882 661.362C8.13699 663.097 1.019 713.624 16.776 722.816L185.882 809.402L205.81 773.393L96.721 699.551L174.766 688.573L120.411 662.022Z" fill="#D1E8F7"/>
<path d="M33.082 727.118C51.352 727.118 66.163 712.307 66.163 694.036C66.163 675.766 51.352 660.954 33.082 660.954C14.811 660.954 0 675.766 0 694.036C0 712.307 14.811 727.118 33.082 727.118Z" fill="#D1E8F7"/>
<path d="M277.242 731.39C295.512 731.39 310.323 716.579 310.323 698.309C310.323 680.038 295.512 665.227 277.242 665.227C258.971 665.227 244.16 680.038 244.16 698.309C244.16 716.579 258.971 731.39 277.242 731.39Z" fill="#D1E8F7"/>
<path d="M186.62 542.202C183.135 524.997 191.331 525.44 194.059 522.705C194.059 522.705 204.291 514.267 212.088 522.132C220.341 530.452 267.65 595.083 267.65 595.083L238.049 622.308L232.485 615.668L218.072 598.478L202.656 580.106L200.741 578.015L179.945 554.46C179.945 554.46 188.591 551.26 186.62 542.202Z" fill="#5661AE"/>
<path d="M203.036 559.48C214.95 555.49 221.372 542.598 217.382 530.684C213.392 518.771 200.5 512.348 188.586 516.338C176.673 520.329 170.25 533.221 174.241 545.134C178.231 557.047 191.123 563.47 203.036 559.48Z" fill="#5661AE"/>
<path d="M201.014 577.923C200.417 574.327 199.223 567.135 197.938 560.58L191.109 528.855C191.109 528.855 209.451 555.965 217.902 574.848C224.16 588.999 231.42 603.422 232.621 615.622L218.209 598.433L202.793 580.061L201.014 577.923Z" fill="#465393"/>
<path d="M297.217 522.32C304.251 509.49 300.871 507.312 303.863 500.013C306.811 492.89 301.577 475.233 306.588 477.641C311.598 480.048 313.149 486.447 313.149 486.447C316.576 480.384 319.732 469.23 327.935 467.953C336.14 466.677 336.866 469.259 341.516 473.075C353.887 483.368 338.112 498.837 335.479 504.727C333.785 508.42 321.338 519.677 319.959 522.137L313.694 531.225L297.217 522.32Z" fill="#FFCCB3"/>
<path d="M321.386 487.242L331.383 468.785" stroke="#E56441" stroke-width="0.94666" stroke-linecap="round"/>
<path d="M327.936 490.231L338.832 473.041" stroke="#E56441" stroke-width="0.94666" stroke-linecap="round"/>
<path d="M335.718 493.535L341.945 483.125" stroke="#E56441" stroke-width="0.94666" stroke-linecap="round"/>
<path d="M318.916 503.49C318.863 497.099 315.028 489.366 315.028 489.366L318.916 503.49Z" fill="#E56441"/>
<path d="M318.916 503.49C318.863 497.099 315.028 489.366 315.028 489.366" stroke="#E56441" stroke-width="0.94666" stroke-linecap="round"/>
<path d="M237.798 594.568L297.991 514.409C298.374 513.938 298.919 513.626 299.519 513.532C300.119 513.439 300.733 513.571 301.241 513.903L317.003 524.327C317.752 524.834 318.285 525.602 318.5 526.481C318.715 527.36 318.595 528.287 318.164 529.083L269.758 618.352L237.798 594.568Z" fill="#5661AE"/>
<path d="M252.423 628.426C263.556 628.426 272.581 619.401 272.581 608.268C272.581 597.136 263.556 588.111 252.423 588.111C241.291 588.111 232.266 597.136 232.266 608.268C232.266 619.401 241.291 628.426 252.423 628.426Z" fill="#5661AE"/>
<path d="M163.037 504.986C163.037 504.986 196.816 513.925 202.614 516.244C208.413 518.564 208.799 527.841 209.186 534.413C209.572 540.985 208.274 688.573 208.274 688.573L133.518 685.698L77.612 652.973C77.612 652.973 80.043 535.867 80.816 530.455C81.589 525.043 75.514 520.383 82.099 517.658L124.429 506.476L163.037 504.986Z" fill="#5661AE"/>
<path d="M106.784 557.562L107.386 666.606L75.248 630.786L90.797 554.169L106.784 557.562Z" fill="#465393"/>
<path d="M118.916 508.143C118.916 508.143 114.134 517.76 118.916 524.394C123.698 531.028 142.842 537.473 155.921 537.283C168.999 537.094 175.929 524.624 170 507.166L148.339 501.081L124.429 506.476L118.916 508.143Z" fill="#465393"/>
<path d="M173.058 425.259C173.058 425.259 182.476 445.582 172.431 449.78C162.386 453.978 163.556 426.245 173.058 425.259Z" fill="#93523E"/>
<path d="M162.434 490.291L165.159 521.015C165.159 521.015 167.771 525.134 157.598 527.297C151.054 528.688 133.432 521.745 130.013 519.662C128.559 518.89 127.42 517.636 126.792 516.115C126.164 514.593 126.086 512.901 126.571 511.328C127.61 507.568 131.916 476.246 131.916 476.246L162.434 490.291Z" fill="#FFCCB3"/>
<path d="M162.959 496.214L146.727 488.195L164.823 517.227L162.959 496.214Z" fill="#FF967C"/>
<path d="M167.649 431.14C167.649 431.14 177.175 455.031 180.63 471.79C184.116 488.699 178.554 492.922 171.215 495.408C165.426 497.37 156.182 498.934 149.894 496.965C138.427 493.375 127.209 483.014 124.526 480.886C120.372 477.591 116.271 462.645 122.359 454.19C128.448 445.734 152.437 419.162 167.649 431.14Z" fill="#FFCCB3"/>
<path d="M155.385 464.116C156.652 463.617 157.062 461.646 156.301 459.712C155.54 457.778 153.897 456.615 152.63 457.113C151.363 457.612 150.953 459.583 151.713 461.517C152.474 463.451 154.118 464.614 155.385 464.116Z" fill="#080B09"/>
<path d="M172.797 457.138C174.064 456.64 174.474 454.668 173.713 452.735C172.953 450.801 171.309 449.638 170.042 450.136C168.775 450.635 168.365 452.606 169.126 454.54C169.886 456.473 171.53 457.637 172.797 457.138Z" fill="#080B09"/>
<path d="M166.411 460.437C166.411 460.437 164.864 465.119 168.116 464.663C171.207 464.121 173.305 465.648 170.604 468.785" fill="#E56441"/>
<path d="M166.411 460.437C166.411 460.437 164.864 465.119 168.116 464.663C171.207 464.121 173.305 465.648 170.604 468.785" stroke="#E56441" stroke-width="0.94666" stroke-linecap="round"/>
<path d="M170.755 472.924L170.771 472.921L170.787 472.916C170.832 472.902 170.88 472.901 170.925 472.912C170.971 472.922 171.013 472.945 171.047 472.978C171.081 473.011 171.106 473.052 171.119 473.097C171.131 473.143 171.132 473.191 171.12 473.236L171.11 473.275L171.106 473.315C170.907 475.364 170.397 476.582 169.778 477.266C169.18 477.928 168.43 478.148 167.579 478.083C166.706 478.016 165.747 477.648 164.818 477.143C163.9 476.644 163.047 476.031 162.388 475.505C162.343 475.463 162.31 475.411 162.292 475.352C162.272 475.291 162.27 475.225 162.286 475.162C162.301 475.1 162.334 475.042 162.379 474.997C162.425 474.951 162.482 474.919 162.545 474.904L162.55 474.903C165.064 474.266 168.856 473.372 170.755 472.924Z" fill="#E56441" stroke="#E56441"/>
<path d="M144.354 455.93L144.592 456.264C144.897 456.781 145.394 457.157 145.975 457.309C146.555 457.461 147.173 457.377 147.692 457.076L156.479 451.662C156.915 451.418 157.243 451.018 157.399 450.543C157.554 450.068 157.526 449.552 157.319 449.097C157.205 448.812 157.033 448.555 156.812 448.342C156.592 448.129 156.329 447.965 156.04 447.861C155.752 447.757 155.445 447.716 155.139 447.739C154.833 447.763 154.536 447.851 154.267 447.998L145.242 453.078C144.993 453.204 144.772 453.378 144.591 453.59C144.411 453.803 144.275 454.049 144.193 454.316C144.11 454.582 144.081 454.862 144.109 455.139C144.137 455.416 144.22 455.685 144.354 455.93Z" fill="#080B09"/>
<path d="M174.709 442.047L164.397 443.002C164.092 443.034 163.797 443.131 163.532 443.285C163.267 443.439 163.038 443.648 162.86 443.898C162.682 444.147 162.559 444.431 162.499 444.732C162.439 445.033 162.443 445.343 162.511 445.641C162.6 446.133 162.87 446.574 163.268 446.876C163.667 447.179 164.164 447.32 164.662 447.273L174.968 446.728C175.566 446.68 176.122 446.398 176.513 445.943C176.904 445.487 177.099 444.896 177.055 444.297L177.062 443.887C177.033 443.609 176.948 443.341 176.813 443.097C176.678 442.853 176.495 442.639 176.276 442.467C176.056 442.295 175.804 442.17 175.535 442.097C175.266 442.025 174.985 442.008 174.709 442.047Z" fill="#080B09"/>
<path d="M155.826 435.907C155.826 435.907 150.679 445.701 141.341 448.605C132.003 451.51 137.106 466.248 137.106 466.248C137.106 466.248 130.703 459.878 123.343 463.464C115.982 467.049 121.569 481.121 131.738 481.3L128.972 497.134C128.972 497.134 123.822 490.721 118.406 487.289C112.989 483.857 93.532 470.536 102.127 452.991C102.127 452.991 95.402 428.356 113.846 415.583C132.29 402.811 148.254 407.631 148.254 407.631C148.254 407.631 152.651 400.656 162.843 402.08C173.035 403.505 175.385 421.883 172.01 428.53C168.635 435.177 163.135 438.002 155.826 435.907Z" fill="#93523E"/>
<path d="M78.984 534.1C91.955 522.27 95.785 529.529 99.534 530.464C99.534 530.464 112.03 534.907 109.288 545.638C106.39 556.993 75.248 630.786 75.248 630.786L36.683 619.378L39.521 611.193L46.863 589.997L54.705 567.332L55.515 564.614L65.039 534.671C65.039 534.671 72.226 540.444 78.984 534.1Z" fill="#5661AE"/>
<path d="M104.671 554.574C112.842 545.029 111.728 530.669 102.184 522.498C92.64 514.327 78.279 515.441 70.109 524.985C61.938 534.529 63.051 548.89 72.596 557.061C82.14 565.231 96.5 564.118 104.671 554.574Z" fill="#5661AE"/>
<path d="M71.43 612.661L143.028 682.821C143.445 683.263 143.683 683.844 143.697 684.451C143.711 685.058 143.5 685.649 143.104 686.11L130.709 700.372C130.108 701.049 129.277 701.477 128.377 701.575C127.478 701.673 126.574 701.433 125.842 700.902L43.671 641.236L71.43 612.661Z" fill="#5661AE"/>
<path d="M55.934 645.526C67.067 645.526 76.092 636.502 76.092 625.369C76.092 614.236 67.067 605.212 55.934 605.212C44.802 605.212 35.777 614.236 35.777 625.369C35.777 636.502 44.802 645.526 55.934 645.526Z" fill="#5661AE"/>
<path d="M172.418 599.146L133.561 706.799H55.433C55.433 703.512 56.739 700.359 59.063 698.035C61.388 695.71 64.54 694.405 67.827 694.405H124.35L157.903 599.146H172.418Z" fill="white"/>
<path d="M172.418 599.146H277.242L236.702 706.799H133.561L172.418 599.146Z" fill="url(#paint3_linear_1_143)"/>
<path d="M318.787 248.068C318.787 248.068 336.253 244.389 341.793 252.883C347.333 261.377 352.873 277.334 365.43 275.265C377.987 273.196 387.589 231.462 400.146 231.832C412.703 232.201 407.163 259.531 420.828 259.9C434.493 260.269 431.169 244.758 442.249 244.758C453.329 244.758 449.635 277.997 464.039 278.366C478.443 278.736 476.965 235.525 498.755 236.263" stroke="white" stroke-width="5" stroke-miterlimit="10" stroke-linecap="round"/>
<path d="M267.801 242.326C276.696 220.477 268.132 196.343 248.673 188.421C229.214 180.499 206.229 191.789 197.334 213.638C188.439 235.487 197.003 259.621 216.462 267.543C235.921 275.465 258.907 264.175 267.801 242.326Z" stroke="#FF967C" stroke-width="16.5208" stroke-miterlimit="10" stroke-linecap="round"/>
<path d="M250.686 263.468C240.419 270.24 227.838 272.174 216.462 267.543C197.003 259.621 188.439 235.487 197.334 213.638C206.229 191.789 229.214 180.499 248.673 188.421" stroke="white" stroke-width="16.5208" stroke-miterlimit="10" stroke-linecap="round"/>
<path d="M331.915 185.889H408.771" stroke="white" stroke-width="10" stroke-miterlimit="10" stroke-linecap="round"/>
<path opacity="0.6" d="M328.273 207.089H359.542" stroke="white" stroke-width="10" stroke-miterlimit="10" stroke-linecap="round"/>
<path d="M913.78 712.813C913.56 712.837 913.46 712.96 913.58 713.059C913.48 713.181 913.48 713.181 913.51 713.403C913.04 714.927 912.71 716.49 912.52 718.073L931.48 733.312L933.58 730.953C933.58 730.953 926.58 722.296 923.96 719.778C922.83 718.668 921.82 717.656 920.81 716.645C919.93 715.732 919.14 714.696 918.38 713.882C917.32 712.427 914.25 712.986 914.22 712.764C914.1 712.666 913.78 712.813 913.78 712.813Z" fill="#233B62"/>
<path d="M770.41 580.402L788.72 598.145L891.09 697.005L892.96 698.708L893.77 699.965L893.89 700.064L908.39 722.034L910.01 724.548L910.55 725.386L920.36 740.353L912.28 744.373L909.94 745.525L906.64 747.118L901.43 749.815L901.34 749.937L895.81 752.781L895.54 752.362L882.94 728.279C880.5 723.627 877.07 719.562 872.9 716.365L761.58 631.15L740.422 614.951L770.41 580.402Z" fill="#FFCCB3"/>
<path d="M906.99 700.881C902.08 698.602 896.57 696.564 891.19 696.882C894.43 699.724 895.91 704.782 898.06 708.469C902.47 716.058 913.78 730.162 908 742.147C904.75 748.882 895.67 752.46 895.54 752.361C894.02 759.278 886.49 787.432 901.51 771.112C909.9 761.998 918.22 752.262 922.4 742.598C924.12 738.636 920.49 734.684 918.71 731.339C916.43 726.277 913.03 719.573 913.46 713.969L913.55 713.846C913.8 713.459 933.25 730.871 933.58 730.953C934.25 729.871 935.81 727.684 935.81 727.684C935.81 727.684 907.92 701.228 906.99 700.881Z" fill="#1C85E8"/>
<path d="M697.52 792.977C697.345 792.839 697.188 792.858 697.207 793.014C697.051 793.033 697.051 793.033 696.913 793.209C695.514 793.972 694.185 794.859 692.943 795.858L695.841 820.012L698.99 819.793C698.99 819.793 700.043 808.711 699.924 805.073C699.893 803.489 699.88 802.062 699.867 800.634C699.874 799.363 700.037 798.073 700.062 796.959C700.325 795.181 697.733 793.428 697.871 793.252C697.852 793.096 697.52 792.977 697.52 792.977Z" fill="#233B62"/>
<path d="M687.635 598.071L688.31 623.553L692.355 765.81L692.5 768.333L692.199 769.798L692.218 769.955L687.22 795.8L686.62 798.73L686.419 799.707L682.969 817.269L674.378 814.489L671.899 813.675L668.425 812.504L662.821 810.795L662.665 810.813L656.729 808.985L656.83 808.496L664.663 782.47C666.168 777.434 666.561 772.132 665.815 766.93L645.835 628.173L642.035 601.794L687.635 598.071Z" fill="#FFCCB3"/>
<path d="M701.008 779.697C699.094 774.637 696.582 769.329 692.512 765.791C692.844 770.093 690.364 774.743 689.318 778.877C687.166 787.388 685.389 805.38 672.876 809.906C665.845 812.449 656.848 808.653 656.829 808.496C650.906 812.377 625.831 827.233 647.981 826.071C660.351 825.422 673.108 824.282 682.856 820.3C686.853 818.667 687.024 813.305 688.09 809.669C690.002 804.457 692.254 797.283 696.48 793.578L696.637 793.559C697.085 793.455 698.811 819.503 698.99 819.793C700.224 819.486 702.866 819.01 702.866 819.01C702.866 819.01 701.433 780.599 701.008 779.697Z" fill="#1C85E8"/>
<path d="M660.054 406.878L623.865 559.698L623.799 570.547L653.226 751.501L700.08 746.429L686.488 573.608L723.765 483.437L716.229 409.491L660.054 406.878Z" fill="#1F2D49"/>
<path d="M654.988 596.816C672.464 596.816 686.632 582.649 686.632 565.172C686.632 547.696 672.464 533.528 654.988 533.528C637.511 533.528 623.344 547.696 623.344 565.172C623.344 582.649 637.511 596.816 654.988 596.816Z" fill="#1F2D49"/>
<path d="M698.365 544.879L689.44 469.374L686.488 573.608L698.365 544.879Z" fill="#0D1B33"/>
<path d="M757.74 406.401C757.74 406.401 774.61 434.747 774.83 458.485C775.17 494.113 762.32 557.996 762.32 557.996L874.51 671.393L847.8 711.44C847.8 711.44 752.07 632.009 711.565 594.28L702.492 575.911L689.44 469.374L709.39 406.401H757.74Z" fill="#1F2D49"/>
<path d="M660.054 406.878L758.32 407.888L767.87 427.65L658.394 413.891L660.054 406.878Z" fill="#0D1B33"/>
<path d="M733.854 603.463C751.33 603.463 765.5 589.296 765.5 571.819C765.5 554.343 751.33 540.175 733.854 540.175C716.377 540.175 702.21 554.343 702.21 571.819C702.21 589.296 716.377 603.463 733.854 603.463Z" fill="#1F2D49"/>
<path d="M648.583 196.878C648.583 196.878 649.902 211.567 646.026 225.687C642.15 239.807 612.803 269.707 638.828 294.071C664.853 318.434 696.691 253.096 696.691 253.096L686.724 222.918L652.258 187.06L648.583 196.878Z" fill="#1F2D49"/>
<path d="M727.984 200.307C727.984 200.307 735.794 210.229 753.59 218.339C771.05 226.298 789.85 239.38 785.98 267.896C782.1 296.412 730.482 274.264 715.317 257.929C700.152 241.595 702.239 212.431 702.239 212.431L727.984 200.307Z" fill="#1F2D49"/>
<path d="M688.062 253.74C688.062 253.74 668.252 261.578 665.228 263.997C662.204 266.417 659.332 286.164 654.19 295.539C649.049 304.915 641.527 322.22 652.513 338.116C663.499 354.011 662.331 366.633 662.331 366.633L659.993 406.507L754.67 408.252C755.51 408.279 756.34 408.127 757.11 407.809C757.88 407.491 758.57 407.012 759.15 406.405C759.72 405.799 760.15 405.077 760.43 404.289C760.7 403.501 760.8 402.663 760.73 401.833C759.68 390.207 754.87 373.881 754.49 355.369C753.98 330.281 753.6 246.453 753.6 246.453L712.352 245.158C704.044 246.591 688.062 253.74 688.062 253.74Z" fill="#FEBB94"/>
<path d="M737.364 280.72C737.364 280.72 723.566 293.301 722.754 302.635C721.943 311.969 720.066 337.994 702.333 340.59C680.598 343.772 674.909 346.87 684.985 349.305C695.06 351.74 717.928 347.795 717.928 358.233C717.928 365.662 726.812 371.219 731.277 367.161C735.741 363.103 771.3 301.417 737.364 280.72Z" fill="#FF967C"/>
<path d="M570.953 291.265L563.473 281.69C561.907 279.449 559.825 277.617 557.402 276.35C553.721 274.507 548.078 271.069 546.117 267.633C542.867 262.171 530.059 247.418 541.169 235.951C545.282 231.719 544.254 232.72 552.475 232.847C560.696 232.973 561.958 241.504 566.066 247.088C566.066 247.088 566.989 240.647 571.53 237.704C576.072 234.761 573.058 252.736 576.552 259.548C580.045 266.36 577.222 268.935 585.499 280.903L570.953 291.265Z" fill="#FFCCB3"/>
<path d="M551.224 233.83L557.905 248.987" stroke="#E56441" stroke-width="0.94666" stroke-linecap="round"/>
<path d="M542.511 236.525L551.768 252.665" stroke="#E56441" stroke-width="0.94666" stroke-linecap="round"/>
<path d="M537.045 247.137L544.342 256.772" stroke="#E56441" stroke-width="0.94666" stroke-linecap="round"/>
<path d="M564.347 250.523C564.347 250.523 561.52 258.621 562.009 265.002L564.347 250.523Z" fill="#E56441"/>
<path d="M564.347 250.523C564.347 250.523 561.52 258.621 562.009 265.002" stroke="#E56441" stroke-width="0.94666" stroke-linecap="round"/>
<path d="M670.041 261.389C662.361 264.051 651.656 269.45 648.758 275.474L623.161 333.786L580.532 269.012L564.389 286.015L604.2 368.356C611.475 386.463 629.955 393.266 643.341 373.751L664.729 340.158L670.041 261.389Z" fill="#FEBB94"/>
<path d="M659.125 311.586C659.125 311.586 656.817 307.605 656.817 328.386L643.342 373.751L664.729 340.158C681.887 317.09 668.332 310.929 659.125 311.586Z" fill="#FF967C"/>
<path d="M706.053 284.073L635.345 312.237C633.148 313.112 632.077 315.603 632.952 317.799L668.342 406.647C669.217 408.844 671.707 409.916 673.904 409.041L744.612 380.876C746.809 380.001 747.88 377.511 747.005 375.314L711.615 286.466C710.74 284.269 708.25 283.198 706.053 284.073Z" fill="#1C85E8"/>
<path d="M646.134 320.594L675.291 308.98" stroke="white" stroke-width="4" stroke-miterlimit="10" stroke-linecap="round"/>
<path d="M650.537 331.033L663.827 325.739" stroke="white" stroke-width="4" stroke-miterlimit="10" stroke-linecap="round"/>
<path d="M685.555 232.853L686.668 264.022C686.668 264.022 685.144 270.847 692.149 270.09C699.153 269.333 708.584 263.817 713.885 257.759C719.186 251.701 718.824 251.215 716.552 247.239C714.28 243.264 703.614 212.963 703.614 212.963L685.555 232.853Z" fill="#FFCCB3"/>
<path d="M685.714 235.467L698.63 227.242C698.63 227.242 692.907 252.359 686.668 264.022L685.714 235.467Z" fill="#FCBA9F"/>
<path d="M650.889 186.209C650.889 186.209 650.683 217.228 664.066 232.839C672.794 243.019 681.975 241.669 697.29 224.909C711.332 209.542 713.301 201.533 713.301 201.533L703.605 171.101C703.605 171.101 652.465 157.979 650.889 186.209Z" fill="#FFCCB3"/>
<path d="M664.206 179.013C664.206 179.013 669.812 192.626 680.223 196.43C690.633 200.234 693.357 207.308 693.357 207.308C693.357 207.308 695.354 195.669 703.536 196.092C711.718 196.515 710.055 210.96 704.977 215.756C704.977 215.756 711.086 227.087 716.266 235.467L738.953 212.951C738.953 212.951 727.264 199.438 724.694 188.565C722.124 177.692 713.806 148.584 682.095 150.512C644.863 152.775 647.001 183.03 648.583 199.834C648.583 199.834 660.259 195.357 664.206 179.013Z" fill="#1F2D49"/>
<path d="M668.237 223.247L677.287 218.807C677.295 218.858 677.303 218.913 677.31 218.97C677.372 219.445 677.4 220.098 677.27 220.815C677.016 222.218 676.152 223.921 673.58 225.027C671.929 225.562 670.521 225.034 669.488 224.332C668.97 223.979 668.557 223.589 668.274 223.286C668.261 223.273 668.249 223.26 668.237 223.247Z" fill="#E56441" stroke="#E56441"/>
<path d="M658.377 210.65C659.521 210.367 660.111 208.772 659.695 207.086C659.279 205.4 658.014 204.262 656.87 204.545C655.726 204.827 655.136 206.423 655.552 208.109C655.969 209.794 657.233 210.932 658.377 210.65Z" fill="#080B09"/>
<path d="M675.337 206.719C676.481 206.437 677.071 204.841 676.654 203.155C676.238 201.47 674.974 200.332 673.83 200.614C672.686 200.897 672.096 202.492 672.512 204.178C672.928 205.864 674.193 207.002 675.337 206.719Z" fill="#080B09"/>
<path d="M651.797 201.56L660.428 199.579C660.572 199.533 660.694 199.436 660.773 199.307C660.851 199.177 660.879 199.024 660.853 198.875C660.757 198.622 660.611 198.39 660.423 198.194C660.235 197.999 660.009 197.843 659.76 197.737C659.51 197.631 659.241 197.577 658.97 197.577C658.698 197.578 658.43 197.634 658.181 197.741L651.413 200.608C650.849 200.747 651.093 201.734 651.797 201.56Z" fill="#080B09"/>
<path d="M680.777 193.834L669.536 197.357C669.461 197.006 669.46 196.643 669.534 196.292C669.608 195.941 669.754 195.609 669.964 195.317C670.174 195.026 670.442 194.782 670.752 194.601C671.062 194.42 671.406 194.306 671.763 194.266L680.744 193.095C681.026 193.026 681.2 193.73 680.777 193.834Z" fill="#080B09"/>
<path d="M664.43 205.013L663.211 214.114L666.426 215.666" fill="#E56441"/>
<path d="M664.43 205.013L663.211 214.114L666.426 215.666" stroke="#E56441" stroke-width="0.94666" stroke-linecap="round"/>
<path d="M672.987 364.588L645.109 372.587L641.701 389.766L648.043 408.779C648.043 408.779 652.503 405.779 651.573 398.781C650.643 391.782 674.201 391.982 678.518 383.184" fill="#FFCCB3"/>
<path d="M736.669 269.902C736.669 269.902 736.486 246.288 755.4 246.285C768.09 246.283 774.16 252.232 775.78 270.796C776.91 283.775 777.73 354.988 777.73 354.988C777.73 354.988 780.92 387.489 753.35 388.096L673.746 385.712L671.949 363.471L741.342 356.554L736.669 269.902Z" fill="#FEBB94"/>
<path d="M679.105 266.949C679.105 266.949 686.283 264.906 685.119 257.855C683.985 250.916 683.941 244.892 686.218 245.731C686.218 245.731 688.227 249.176 700.72 245.347C713.131 241.661 712.353 237.403 712.353 237.403C712.353 237.403 714.109 235.847 715.421 239.841C716.731 243.835 720.056 254.895 727.085 254.099L728.985 274.714L691.602 287.019C691.52 287.162 674.242 270.425 679.105 266.949Z" fill="#FEBB94"/>
<path d="M374.198 678.332H397.718" stroke="white" stroke-width="5" stroke-miterlimit="10" stroke-linecap="round"/>
<path opacity="0.5" d="M378.986 688.539H390.747" stroke="white" stroke-width="5" stroke-miterlimit="10" stroke-linecap="round"/>
<path d="M358.531 657.953L376.578 645.368L389.291 653.834L406.211 641.58" stroke="white" stroke-width="6.50414" stroke-linecap="round" stroke-linejoin="round"/>
<path d="M393.203 636.239H411.202V654.049" stroke="white" stroke-width="6.50414" stroke-linecap="round" stroke-linejoin="round"/>
<path d="M606.313 83.238H536.558C535.705 83.271 534.857 83.104 534.08 82.75C533.303 82.397 532.62 81.866 532.085 81.202C531.549 80.537 531.177 79.757 530.997 78.922C530.817 78.088 530.834 77.224 531.048 76.397L541.769 21.2772C542.182 19.3936 543.208 17.7002 544.686 16.4623C546.165 15.2245 548.012 14.5121 549.939 14.4368H619.694C620.547 14.4039 621.395 14.5709 622.172 14.9244C622.949 15.2779 623.632 15.8081 624.167 16.4727C624.703 17.1373 625.075 17.9179 625.255 18.7521C625.435 19.5863 625.418 20.451 625.204 21.2772L614.483 76.397C614.07 78.281 613.044 79.974 611.566 81.212C610.087 82.45 608.24 83.162 606.313 83.238Z" fill="#1C85E8"/>
<path d="M558.466 29.3441L604.913 29.3531C605.247 29.3386 605.578 29.4014 605.883 29.5366C606.188 29.6719 606.457 29.8758 606.67 30.132C606.883 30.389 607.033 30.692 607.11 31.016C607.186 31.341 607.186 31.678 607.11 32.003L606.474 35.48C606.368 35.985 606.146 36.459 605.826 36.864C605.506 37.27 605.096 37.596 604.629 37.816L579.183 50.063C578.789 50.271 578.35 50.379 577.905 50.376C577.46 50.374 577.022 50.261 576.631 50.048L555.697 37.43C555.315 37.191 555.017 36.839 554.843 36.423C554.67 36.006 554.631 35.547 554.731 35.107L555.301 31.993C555.456 31.261 555.852 30.602 556.426 30.122C557 29.6415 557.718 29.3677 558.466 29.3441Z" fill="white"/>
<path d="M556.161 42.005L576.187 54.567C576.459 54.72 576.766 54.801 577.078 54.801C577.39 54.801 577.697 54.72 577.969 54.567L602.588 42.014C603.912 41.339 605.246 42.195 604.997 43.56L601.337 63.571C601.058 64.886 600.346 66.07 599.315 66.933C598.284 67.796 596.993 68.288 595.649 68.33L553.475 68.322C552.876 68.348 552.28 68.235 551.732 67.992C551.185 67.749 550.701 67.383 550.319 66.922C549.936 66.46 549.666 65.917 549.529 65.334C549.392 64.751 549.391 64.144 549.528 63.561L553.187 43.55C553.244 43.232 553.374 42.931 553.566 42.67C553.758 42.409 554.007 42.196 554.294 42.047C554.582 41.898 554.899 41.816 555.223 41.809C555.547 41.801 555.868 41.868 556.161 42.005Z" fill="white"/>
<path d="M622.105 28.8736C630.078 28.8736 636.541 22.41 636.541 14.4368C636.541 6.4636 630.078 0 622.105 0C614.131 0 607.668 6.4636 607.668 14.4368C607.668 22.41 614.131 28.8736 622.105 28.8736Z" fill="#FF967C"/>
<path d="M623.115 333.765L635.085 351.55L628.702 321.165L623.115 333.765Z" fill="#FF967C"/>
</g>
<defs>
<linearGradient id="paint0_linear_1_143" x1="417.415" y1="172.927" x2="435.678" y2="482.972" gradientUnits="userSpaceOnUse">
<stop stop-color="white"/>
<stop offset="1" stop-color="#94B9FF"/>
</linearGradient>
<linearGradient id="paint1_linear_1_143" x1="370.669" y1="264.5" x2="447.1" y2="800.254" gradientUnits="userSpaceOnUse">
<stop stop-color="white"/>
<stop offset="1" stop-color="#94B9FF"/>
</linearGradient>
<linearGradient id="paint2_linear_1_143" x1="568.5" y1="264.5" x2="644.93" y2="800.254" gradientUnits="userSpaceOnUse">
<stop stop-color="white"/>
<stop offset="1" stop-color="#94B9FF"/>
</linearGradient>
<linearGradient id="paint3_linear_1_143" x1="201.825" y1="598.89" x2="220.461" y2="828.307" gradientUnits="userSpaceOnUse">
<stop stop-color="white"/>
<stop offset="1" stop-color="#94B9FF"/>
</linearGradient>
</defs>
</svg>
