<svg width="867" height="712" viewBox="0 0 867 712" fill="none" xmlns="http://www.w3.org/2000/svg">
<mask id="mask0_1_237" style="mask-type:luminance" maskUnits="userSpaceOnUse" x="0" y="0" width="867" height="712">
<path d="M866.273 0H0V711.68H866.273V0Z" fill="white"/>
</mask>
<g mask="url(#mask0_1_237)">
<path d="M173.529 0H703.968C711.992 0 719.682 2.97759 725.358 8.27775C731.024 13.5779 734.209 20.7663 734.209 28.2621V59.4663H143.287V28.2621C143.287 20.7663 146.474 13.5779 152.145 8.27775C157.816 2.97759 165.509 0 173.529 0Z" fill="#1C85E8"/>
<path d="M143.287 59.4663H734.209V560.043C734.209 566.828 732.784 573.547 730.003 579.815C727.223 586.084 723.158 591.779 718.02 596.577C712.89 601.375 706.792 605.18 700.088 607.777C693.375 610.373 686.186 611.71 678.927 611.71H198.572C191.313 611.71 184.123 610.373 177.416 607.777C170.708 605.18 164.613 601.375 159.48 596.577C154.346 591.779 150.274 586.084 147.496 579.815C144.718 573.547 143.287 566.828 143.287 560.043V59.4663Z" fill="url(#paint0_linear_1_237)"/>
<path d="M529.383 414.555H367.301V488.117H529.383V414.555Z" fill="#FFCCB3"/>
<path d="M366.346 459.906C347.337 477.385 339.859 563.466 340.86 611.71H567.134C567.134 611.71 566.727 506.503 549.573 471.051C533.797 438.447 507.573 486.541 366.346 459.906Z" fill="#1F2D49"/>
<path d="M502.148 79.7713C502.148 79.7713 520.923 59.7582 557.365 56.8465C593.808 53.9349 604.712 83.7642 603.154 102.091C601.596 120.418 573.037 158.269 578.749 174.283C584.461 190.297 557.601 182.533 554.674 150.504C551.747 118.476 540.842 73.8312 511.244 89.8448L502.148 79.7713Z" fill="#080B09"/>
<path d="M507.847 70.4032C507.847 70.4032 512.337 67.9718 515.588 73.6437C518.84 79.3157 524.913 90.8332 517.216 93.8863C509.519 96.9402 507.847 70.4032 507.847 70.4032Z" fill="#1C85E8"/>
<path d="M403.747 254.854C403.747 254.854 432.859 285.39 423.177 295.185C404.001 315.316 352.998 353.151 336.287 365.675C335.566 366.191 334.742 366.568 333.863 366.786C332.985 367.003 332.069 367.056 331.169 366.941C330.269 366.826 329.401 366.545 328.618 366.115C327.834 365.685 327.149 365.116 326.603 364.437L287.085 315.883C285.54 314.014 284.82 311.663 285.071 309.312C285.324 306.962 286.529 304.791 288.44 303.245L364.986 241.559L403.747 254.854Z" fill="#1C85E8"/>
<path d="M357.788 293.675C357.788 293.675 321.507 313.828 318.238 354.318L325.463 362.992C325.463 362.992 330 370.381 336.287 365.675C342.575 360.968 371.658 339.197 371.658 339.197L357.788 293.675Z" fill="#0E66AF"/>
<path d="M391.71 309.025C414.34 309.025 432.686 291.881 432.686 270.732C432.686 249.583 414.34 232.438 391.71 232.438C369.08 232.438 350.734 249.583 350.734 270.732C350.734 291.881 369.08 309.025 391.71 309.025Z" fill="#1C85E8"/>
<path d="M285.009 390.769L249.2 346.459L283.099 321.864L288.412 317.867L325.557 363.263L319.09 367.61L285.009 390.769Z" fill="#FFCCB3"/>
<path d="M319.089 367.61C309.496 355.609 291.458 332.152 283.099 321.864L288.412 317.867L325.463 362.992L319.089 367.61Z" fill="#FF967C"/>
<path d="M266.56 396.916C282.988 396.916 296.306 384.47 296.306 369.118C296.306 353.764 282.988 341.318 266.56 341.318C250.131 341.318 236.814 353.764 236.814 369.118C236.814 384.47 250.131 396.916 266.56 396.916Z" fill="#FFCCB3"/>
<path d="M291.746 354.163C291.746 354.163 195.792 222.472 191.357 211.289C187.04 200.366 164.376 226.648 164.376 226.648L238.639 378.069L291.746 354.163Z" fill="#FFCCB3"/>
<path d="M423.847 170.515L412.312 245.673C412.312 245.673 409.283 255.649 422.722 257.159C436.161 258.669 464.817 255.295 475.05 245.103C485.285 234.911 481.705 229.861 481.705 229.861L459.999 148.284L423.847 170.515Z" fill="#FFCCB3"/>
<path d="M422.242 180.241L450.458 170.927L415.501 219.345L422.242 180.241Z" fill="#FF967C"/>
<path d="M391.923 77.6794C391.923 77.6794 367.715 130.835 380.331 167.266C388.559 191.025 406.477 195.297 447.511 177.492C485.137 161.167 494.91 148.817 494.91 148.817L500.458 89.562C500.458 89.562 416.507 30.3013 391.923 77.6794Z" fill="#FFCCB3"/>
<path d="M412.108 224.064C412.108 224.064 381.098 232.116 374.805 236.821C368.511 241.526 363.934 279.768 354.633 298.658C340.863 326.624 331.949 341.501 355.082 372.233C369.034 390.769 364.29 437.893 364.29 437.893H534.161C529.014 345.234 551.789 236.005 551.789 236.005L475.123 219.496C457.837 222.281 412.108 224.064 412.108 224.064Z" fill="#1C85E8"/>
<path d="M406.685 225.559C406.685 225.559 408.978 210.993 416.306 209.968C423.635 208.943 468.417 202.647 475.383 205.389C482.348 208.129 490.78 225.559 490.78 225.559C490.78 225.559 476.483 258.149 455.953 259.862C435.423 261.576 400.088 255.661 403.825 243.544C407.561 231.427 406.685 225.559 406.685 225.559Z" fill="#1C85E8"/>
<path d="M392.738 229.987C392.738 229.987 397.692 258.096 424.595 257.653C451.499 257.209 490.594 219.496 490.594 219.496" stroke="white" stroke-width="1.35709" stroke-miterlimit="10"/>
<path d="M514.631 270.732C514.631 270.732 487.897 287.249 495.773 303.917C504.628 322.657 504.551 370.922 479.138 373.947C433.794 379.343 453.495 386.753 474.461 391.489C495.427 396.223 486.843 396.228 486.843 416.527C486.843 430.973 535.423 443.499 534.161 431.826C525.713 353.728 560.826 304.276 514.631 270.732Z" fill="#0E66AF"/>
<path d="M389.765 155.885L412.284 156.926C412.203 157.185 412.081 157.54 411.904 157.956C411.522 158.861 410.886 160.052 409.879 161.206C407.881 163.494 404.391 165.668 398.363 165.098C394.556 164.416 392.392 162.024 391.166 159.76C390.553 158.626 390.181 157.531 389.962 156.721C389.873 156.388 389.808 156.104 389.765 155.885Z" fill="#E56441" stroke="#E56441"/>
<path d="M391.251 120.942C392.192 117.682 391.036 114.556 388.669 113.959C386.302 113.362 383.62 115.521 382.679 118.781C381.738 122.041 382.894 125.168 385.261 125.765C387.628 126.361 390.31 124.202 391.251 120.942Z" fill="#080B09"/>
<path d="M426.088 130.225C427.028 126.965 425.873 123.839 423.505 123.242C421.138 122.646 418.457 124.804 417.515 128.065C416.575 131.325 417.731 134.451 420.098 135.048C422.465 135.645 425.146 133.486 426.088 130.225Z" fill="#080B09"/>
<path d="M382.442 104.102L400.151 108.86C400.459 108.917 400.779 108.868 401.052 108.722C401.325 108.575 401.531 108.342 401.634 108.064C401.715 107.542 401.681 107.01 401.537 106.5C401.392 105.989 401.137 105.512 400.789 105.097C400.441 104.681 400.007 104.336 399.512 104.082C399.018 103.827 398.473 103.669 397.911 103.617L382.701 102.121C381.534 101.827 380.983 103.735 382.442 104.102Z" fill="#080B09"/>
<path d="M442.986 118.249L418.97 113.657C419.188 112.989 419.552 112.371 420.04 111.843C420.529 111.314 421.13 110.887 421.805 110.59C422.48 110.292 423.215 110.129 423.962 110.113C424.709 110.096 425.451 110.226 426.141 110.494L443.671 116.961C444.253 117.107 443.86 118.47 442.986 118.249Z" fill="#080B09"/>
<path d="M401.961 121.875L390.57 136.21L394.86 141.878" stroke="#E56441" stroke-width="2.23881" stroke-linecap="round"/>
<path d="M423.145 278.274C425.35 278.274 427.138 273.658 427.138 267.963C427.138 262.269 425.35 257.652 423.145 257.652C420.939 257.652 419.151 262.269 419.151 267.963C419.151 273.658 420.939 278.274 423.145 278.274Z" fill="white"/>
<path d="M607.219 420.142L548.001 424.677L537.892 384.57L525.713 353.728L588.035 346.758L595.826 381.275L607.219 420.142Z" fill="#FFCCB3"/>
<path d="M590.139 356.079L592.323 365.758L530.951 366.992L526.914 356.768L590.139 356.079Z" fill="#FF967C"/>
<path d="M541.6 311.39C564.23 311.39 582.575 294.245 582.575 273.096C582.575 251.947 564.23 234.802 541.6 234.802C518.969 234.802 500.624 251.947 500.624 273.096C500.624 294.245 518.969 311.39 541.6 311.39Z" fill="#1C85E8"/>
<path d="M533.697 255.093C533.697 255.093 576.882 248.468 580.549 261.355C588.471 287.27 598.211 328.873 600.579 348.769C600.659 349.614 600.559 350.467 600.285 351.277C600.012 352.086 599.568 352.837 598.982 353.486C598.396 354.135 597.678 354.669 596.871 355.058C596.063 355.446 595.18 355.681 594.274 355.749L529.236 360.938C526.718 361.156 524.208 360.466 522.219 359.008C520.229 357.55 518.913 355.436 518.54 353.1L500.926 278.566L533.697 255.093Z" fill="#1C85E8"/>
<path d="M407.015 72.6266C407.015 72.6266 408.547 98.4457 431.951 110.957C431.951 110.957 438.796 130.76 464.339 135.417C464.339 135.417 462.83 117.216 475.004 117.409C495.678 117.736 485.509 147.042 471.533 151.85C462.034 155.118 456.313 166.715 470.412 193.145C502.789 182.354 525.558 138.77 516.631 90.4171C509.483 51.695 458.115 39.0502 447.562 40.3116C447.562 40.3116 403.732 26.1612 380.654 64.9697C360.926 98.1448 379.35 117.944 379.35 117.944L389.865 88.4182C389.865 88.4182 394.256 91.3003 407.015 72.6266Z" fill="#080B09"/>
<path d="M607.439 515.82H450.589C447.555 515.82 444.626 514.784 442.351 512.909C440.077 511.032 438.612 508.445 438.236 505.631L423.759 397.652C423.539 396.015 423.694 394.352 424.215 392.776C424.735 391.199 425.609 389.743 426.778 388.506C427.946 387.269 429.382 386.278 430.992 385.6C432.601 384.921 434.347 384.57 436.112 384.57H621.916C623.681 384.57 625.426 384.921 627.036 385.6C628.646 386.278 630.082 387.269 631.25 388.506C632.419 389.743 633.292 391.199 633.812 392.776C634.333 394.352 634.489 396.015 634.269 397.652L619.792 505.631C619.414 508.445 617.951 511.032 615.677 512.909C613.401 514.784 610.472 515.82 607.439 515.82Z" fill="url(#paint1_linear_1_237)"/>
<path d="M529.382 458.47C535.463 458.47 540.392 453.864 540.392 448.182C540.392 442.499 535.463 437.893 529.382 437.893C523.303 437.893 518.374 442.499 518.374 448.182C518.374 453.864 523.303 458.47 529.382 458.47Z" fill="white"/>
<path d="M168.454 235.3L159.002 218.353C159.002 218.353 125.582 200.487 121.709 194.028C117.835 187.568 116.312 169.124 123.169 164.402C123.169 164.402 96.5049 145.686 101.044 141.893C105.568 137.827 157.956 174.196 157.956 174.196C157.956 174.196 151.578 147.402 161.271 146.146C163.896 156.531 168.394 166.423 174.571 175.397C184.776 190.142 186.033 203.349 186.033 203.349L198.06 224.92L168.454 235.3Z" fill="#FFCCB3"/>
<path d="M124.967 164.876L141.115 174.386" stroke="#FF967C" stroke-width="2.87188" stroke-linecap="round" stroke-linejoin="round"/>
<path d="M122.559 175.756L136.264 183.717" stroke="#FF967C" stroke-width="2.87188" stroke-linecap="round" stroke-linejoin="round"/>
<path d="M125.223 187.518L134.364 192.917" stroke="#FF967C" stroke-width="2.87188" stroke-linecap="round" stroke-linejoin="round"/>
<path d="M188.135 36.9255C192.385 36.9255 195.831 33.7055 195.831 29.7331C195.831 25.7608 192.385 22.5408 188.135 22.5408C183.884 22.5408 180.438 25.7608 180.438 29.7331C180.438 33.7055 183.884 36.9255 188.135 36.9255Z" fill="white"/>
<path d="M219.218 36.9255C223.469 36.9255 226.914 33.7055 226.914 29.7331C226.914 25.7608 223.469 22.5408 219.218 22.5408C214.968 22.5408 211.522 25.7608 211.522 29.7331C211.522 33.7055 214.968 36.9255 219.218 36.9255Z" fill="white"/>
<path d="M248.424 36.9255C252.675 36.9255 256.121 33.7055 256.121 29.7331C256.121 25.7608 252.675 22.5408 248.424 22.5408C244.174 22.5408 240.728 25.7608 240.728 29.7331C240.728 33.7055 244.174 36.9255 248.424 36.9255Z" fill="white"/>
<path opacity="0.7" d="M17.2426 28.8517C48.1847 53.513 129.786 109.743 233.423 112.429C235.542 112.488 237.553 113.318 239.028 114.741C240.504 116.164 241.327 118.069 241.325 120.051V273.513C241.326 275.47 240.521 277.353 239.078 278.772C237.634 280.19 235.661 281.036 233.569 281.133C202.409 282.581 84.2502 282.413 5.95666 204.076C4.56032 202.67 3.78779 200.819 3.79395 198.901V34.6634C3.79307 33.2072 4.23828 31.7806 5.07767 30.5529C5.91705 29.3261 7.11455 28.3484 8.52937 27.7375C9.9433 27.1257 11.5165 26.9054 13.0606 27.1035C14.6048 27.3009 16.0557 27.9069 17.2426 28.8517Z" fill="#FEBB94"/>
<path d="M28.98 74.0746C28.98 74.0746 53.397 96.247 86.7719 110.02" stroke="white" stroke-width="7.4328" stroke-miterlimit="10" stroke-linecap="round"/>
<path opacity="0.4" d="M28.98 100.955C28.98 100.955 62.962 130.577 107.167 141.576" stroke="white" stroke-width="7.4328" stroke-miterlimit="10" stroke-linecap="round"/>
<path d="M23.9181 199.247V135.148L47.9656 151.229V216.878L23.9181 199.247Z" fill="white"/>
<path d="M64.507 225.149V179.478L88.5545 192.918V238.066L64.507 225.149Z" fill="white"/>
<path d="M167.335 260.902V215.23L143.287 212.154V257.303L167.335 260.902Z" fill="white"/>
<path d="M206.834 262.857V182.895H182.787V262.335L206.834 262.857Z" fill="white"/>
<path d="M103.898 245.159V224.279L127.945 230.599V253.298L103.898 245.159Z" fill="white"/>
<g opacity="0.7">
<path d="M77.47 346.843C108.412 368.076 190.013 423.485 293.65 414.685C294.658 414.575 295.68 414.668 296.646 414.959C297.612 415.25 298.5 415.732 299.25 416.371C299.999 417.011 300.593 417.794 300.99 418.667C301.387 419.54 301.579 420.483 301.552 421.431V574.894C301.499 576.925 300.7 578.877 299.286 580.421C297.874 581.966 295.935 583.008 293.796 583.373C262.636 588.275 133.04 585.854 66.1832 523.319C65.4916 522.671 64.9443 521.901 64.573 521.053C64.2017 520.206 64.0143 519.299 64.0213 518.383V354.146C64.0213 347.642 72.1741 343.209 77.47 346.843Z" fill="#96BAFD"/>
</g>
<path d="M575.5 511.414C575.5 511.414 583.79 512.057 582.542 515.967C581.293 519.876 573.892 518.072 567.134 521.981C560.377 525.891 533.659 528.681 520.314 526.602C506.968 524.523 503.261 511.414 503.261 511.414C503.261 511.414 501.03 498.976 524.603 497.699C548.175 496.422 559.146 503.491 563.247 511.154L575.5 511.414Z" fill="#FFCCB3"/>
<path d="M513.283 499.632L518.374 512.429" stroke="#E56441" stroke-width="2.23881" stroke-linecap="round"/>
<path d="M526.468 497.549L531.559 510.346" stroke="#E56441" stroke-width="2.23881" stroke-linecap="round"/>
<path d="M540.392 498.633L545.483 511.43" stroke="#E56441" stroke-width="2.23881" stroke-linecap="round"/>
<path opacity="0.7" d="M826.366 359.328C783.208 393.728 669.384 472.163 524.821 475.91C521.865 475.993 519.06 477.15 517.001 479.136C514.943 481.121 513.794 483.778 513.798 486.541V700.606C513.797 703.336 514.919 705.963 516.933 707.942C518.947 709.92 521.699 711.099 524.616 711.234C568.081 713.255 732.898 713.02 842.115 603.749C844.06 601.787 845.142 599.206 845.133 596.53V367.435C845.133 365.403 844.508 363.414 843.338 361.701C842.168 359.99 840.496 358.626 838.525 357.774C836.554 356.921 834.355 356.614 832.208 356.89C830.052 357.165 828.028 358.011 826.366 359.328Z" fill="#1C85E8"/>
<path d="M810 422.409C810 422.409 775.941 453.338 729.387 472.55" stroke="white" stroke-width="10.368" stroke-miterlimit="10" stroke-linecap="round"/>
<path opacity="0.4" d="M810 459.906C810 459.906 762.593 501.225 700.933 516.568" stroke="white" stroke-width="10.368" stroke-miterlimit="10" stroke-linecap="round"/>
<path d="M787.863 291.607H656.111C653.526 291.607 650.966 292.083 648.578 293.007C646.19 293.931 644.021 295.286 642.192 296.994C640.365 298.703 638.915 300.73 637.926 302.962C636.937 305.194 636.427 307.586 636.427 310.002V348.095C636.427 350.51 636.937 352.902 637.926 355.134C638.915 357.366 640.365 359.394 642.192 361.102C644.021 362.811 646.19 364.166 648.578 365.09C650.966 366.014 653.527 366.49 656.111 366.49H702.886L716.682 379.388C717.975 380.596 719.726 381.275 721.556 381.275C723.387 381.275 725.138 380.596 726.431 379.388L740.227 366.49H787.863C793.08 366.49 798.096 364.552 801.782 361.102C805.478 357.653 807.545 352.973 807.545 348.095V310.002C807.545 305.123 805.478 300.444 801.782 296.994C798.096 293.545 793.08 291.607 787.863 291.607Z" fill="white"/>
<path d="M692.319 316.965C690.559 315.447 688.254 314.604 685.861 314.604C683.467 314.604 681.162 315.447 679.402 316.965L676.97 319.065L674.537 316.965C672.779 315.447 670.473 314.604 668.079 314.604C665.684 314.604 663.378 315.447 661.619 316.965C660.691 317.751 659.949 318.709 659.441 319.779C658.933 320.849 658.671 322.006 658.671 323.176C658.671 324.346 658.933 325.504 659.441 326.573C659.949 327.643 660.691 328.601 661.619 329.386L676.97 342.683L692.319 329.562C693.287 328.781 694.07 327.814 694.598 326.728C695.134 325.641 695.407 324.459 695.407 323.264C695.407 322.068 695.134 320.887 694.598 319.8C694.07 318.713 693.287 317.746 692.319 316.965Z" fill="#F4608A"/>
<path d="M709.458 324.735C709.59 323.124 710.259 321.863 711.456 320.952C712.652 320.041 714.21 319.586 716.119 319.586C717.395 319.586 718.495 319.805 719.41 320.243C720.351 320.663 721.055 321.241 721.521 321.976C722.005 322.712 722.252 323.544 722.252 324.473C722.252 325.558 721.917 326.495 721.24 327.283C720.58 328.072 719.718 328.58 718.653 328.808V328.938C719.867 329.219 720.835 329.77 721.548 330.594C722.26 331.417 722.621 332.494 722.621 333.825C722.621 334.823 722.375 335.725 721.882 336.531C721.398 337.32 720.668 337.941 719.691 338.397C718.715 338.852 717.544 339.079 716.181 339.079C714.192 339.079 712.564 338.598 711.289 337.635C710.013 336.654 709.3 335.271 709.15 333.484H711.623C711.755 334.535 712.212 335.393 713.004 336.058C713.787 336.724 714.843 337.057 716.154 337.057C717.465 337.057 718.459 336.742 719.128 336.111C719.823 335.463 720.175 334.631 720.175 333.615C720.175 332.301 719.7 331.356 718.767 330.778C717.826 330.2 716.409 329.911 714.518 329.911H713.875V327.914H714.553C716.269 327.897 717.58 327.633 718.459 327.126C719.339 326.601 719.779 325.795 719.779 324.709C719.779 323.78 719.454 323.036 718.794 322.475C718.16 321.915 717.236 321.635 716.04 321.635C714.878 321.635 713.937 321.915 713.224 322.475C712.512 323.036 712.089 323.789 711.966 324.735H709.458ZM729.132 335.638L725.991 342.706H724.275L726.325 335.638H729.132ZM744.6 322.029H734.737V328.019C735.168 327.458 735.801 327.004 736.646 326.653C737.491 326.285 738.397 326.101 739.374 326.101C740.931 326.101 742.198 326.407 743.166 327.021C744.143 327.616 744.838 328.396 745.251 329.359C745.682 330.305 745.893 331.312 745.893 332.38C745.893 333.642 745.647 334.771 745.137 335.77C744.635 336.768 743.852 337.556 742.805 338.134C741.776 338.712 740.491 339.001 738.951 339.001C736.989 339.001 735.397 338.528 734.174 337.582C732.96 336.636 732.212 335.375 731.956 333.799H734.455C734.702 334.797 735.212 335.576 736.004 336.137C736.787 336.698 737.781 336.978 738.978 336.978C740.465 336.978 741.573 336.566 742.33 335.743C743.078 334.902 743.447 333.799 743.447 332.433C743.447 331.066 743.078 330.015 742.33 329.28C741.573 328.527 740.474 328.151 739.013 328.151C738.019 328.151 737.148 328.378 736.391 328.834C735.661 329.271 735.133 329.876 734.79 330.646H732.379V319.927H744.6V322.029ZM748.991 337.03C751.366 335.244 753.231 333.781 754.578 332.643C755.933 331.487 757.068 330.287 757.983 329.044C758.924 327.782 759.39 326.548 759.39 325.339C759.39 324.201 759.091 323.307 758.493 322.66C757.912 321.994 756.962 321.661 755.651 321.661C754.375 321.661 753.381 322.038 752.668 322.791C751.973 323.526 751.604 324.516 751.542 325.759H749.07C749.149 323.798 749.782 322.283 750.979 321.215C752.184 320.146 753.733 319.612 755.625 319.612C757.552 319.612 759.083 320.111 760.2 321.11C761.344 322.108 761.916 323.483 761.916 325.234C761.916 326.688 761.449 328.107 760.517 329.49C759.593 330.857 758.546 332.065 757.367 333.116C756.188 334.149 754.674 335.358 752.836 336.742H762.505V338.738H748.991V337.03ZM777.973 321.819L770.16 338.949H767.573L775.501 322.055H764.652V320.006H777.973V321.819Z" fill="#1C85E8"/>
<path opacity="0.7" d="M14.8406 642.222H114.174C116.123 642.222 118.053 641.864 119.854 641.167C121.654 640.47 123.291 639.448 124.668 638.16C126.046 636.873 127.139 635.344 127.885 633.661C128.631 631.979 129.015 630.174 129.015 628.354V599.634C129.015 597.813 128.631 596.009 127.885 594.326C127.139 592.644 126.046 591.114 124.668 589.827C123.291 588.539 121.654 587.518 119.854 586.821C118.053 586.123 116.123 585.765 114.174 585.765H78.9121L68.506 576.04C67.532 575.13 66.2104 574.618 64.8326 574.618C63.4556 574.618 62.134 575.13 61.16 576.04L50.7539 585.765H14.8406C10.9041 585.765 7.12951 587.226 4.34651 589.827C1.56351 592.428 -4.06901e-06 595.955 -4.06901e-06 599.634V628.354C-4.06901e-06 632.032 1.56351 635.559 4.34651 638.16C7.12951 640.761 10.9041 642.222 14.8406 642.222Z" fill="#1C85E8"/>
<path d="M61.636 621.053C63.4309 619.706 64.8361 618.604 65.8541 617.745C66.8712 616.874 67.7264 615.969 68.4189 615.032C69.1254 614.08 69.4782 613.15 69.4782 612.238C69.4782 611.38 69.2521 610.707 68.7999 610.218C68.3617 609.717 67.6481 609.465 66.6591 609.465C65.6983 609.465 64.9496 609.749 64.4129 610.317C63.8902 610.872 63.6069 611.618 63.5647 612.555H61.6994C61.7566 611.077 62.237 609.934 63.1406 609.129C64.0451 608.323 65.2109 607.921 66.638 607.921C68.0933 607.921 69.2451 608.296 70.0933 609.05C70.9546 609.802 71.3858 610.839 71.3858 612.159C71.3858 613.256 71.0329 614.324 70.3264 615.368C69.634 616.398 68.8421 617.309 67.9525 618.101C67.0621 618.881 65.9245 619.792 64.5396 620.835H71.831V622.34H61.636V621.053ZM73.5942 619.31V617.943L81.0334 608.316H83.344V617.745H85.4635V619.31H83.344V622.499H81.4364V619.31H73.5942ZM81.5209 610.198L75.8194 617.745H81.5209V610.198ZM87.3482 611.783C87.4467 610.568 87.9483 609.617 88.8528 608.93C89.7573 608.244 90.9301 607.9 92.3713 607.9C93.3322 607.9 94.1583 608.065 94.8508 608.396C95.5573 608.713 96.087 609.148 96.4407 609.703C96.8076 610.258 96.9915 610.885 96.9915 611.585C96.9915 612.404 96.7372 613.11 96.2287 613.704C95.7342 614.298 95.084 614.681 94.2789 614.853V614.952C95.1975 615.163 95.9251 615.579 96.4618 616.2C96.9985 616.821 97.2669 617.632 97.2669 618.636C97.2669 619.389 97.083 620.069 96.7161 620.676C96.3483 621.271 95.7975 621.74 95.0628 622.083C94.3281 622.426 93.4448 622.598 92.4136 622.598C90.9161 622.598 89.686 622.235 88.7252 621.509C87.7644 620.769 87.2277 619.726 87.1151 618.379H88.9795C89.0789 619.171 89.4247 619.818 90.0186 620.32C90.6116 620.822 91.4035 621.073 92.3924 621.073C93.3814 621.073 94.1302 620.835 94.6387 620.359C95.1614 619.871 95.4236 619.243 95.4236 618.478C95.4236 617.488 95.0699 616.774 94.3633 616.338C93.6568 615.902 92.5904 615.685 91.1633 615.685H90.6758V614.18H91.1844C92.484 614.167 93.4659 613.968 94.1302 613.585C94.7945 613.189 95.1262 612.581 95.1262 611.763C95.1262 611.063 94.8789 610.502 94.3845 610.079C93.9041 609.656 93.2116 609.445 92.3071 609.445C91.4317 609.445 90.7251 609.656 90.1875 610.079C89.6508 610.502 89.3332 611.07 89.2337 611.783H87.3482ZM108.413 611.585C108.102 610.119 107.135 609.386 105.509 609.386C104.251 609.386 103.312 609.842 102.69 610.753C102.068 611.651 101.765 613.136 101.779 615.209C102.103 614.523 102.641 613.988 103.39 613.605C104.153 613.209 105.001 613.011 105.933 613.011C107.389 613.011 108.547 613.433 109.409 614.278C110.285 615.124 110.723 616.292 110.723 617.785C110.723 618.683 110.533 619.488 110.151 620.201C109.784 620.914 109.218 621.482 108.455 621.904C107.706 622.327 106.795 622.538 105.721 622.538C104.265 622.538 103.129 622.235 102.308 621.627C101.489 621.019 100.917 620.182 100.592 619.112C100.267 618.042 100.104 616.721 100.104 615.15C100.104 610.304 101.913 607.88 105.531 607.88C106.915 607.88 108.003 608.231 108.795 608.93C109.586 609.63 110.052 610.515 110.193 611.585H108.413ZM105.531 614.536C104.923 614.536 104.351 614.655 103.814 614.893C103.276 615.117 102.838 615.467 102.499 615.943C102.175 616.405 102.012 616.972 102.012 617.646C102.012 618.65 102.323 619.468 102.945 620.102C103.567 620.723 104.456 621.033 105.615 621.033C106.604 621.033 107.389 620.749 107.968 620.181C108.562 619.6 108.858 618.822 108.858 617.844C108.858 616.814 108.576 616.009 108.01 615.427C107.445 614.833 106.618 614.536 105.531 614.536Z" fill="white"/>
<path d="M543.561 618.325C543.561 618.325 575.24 612.127 589.724 597.767C608.915 578.74 613.342 555.923 634.368 553.576C667.365 549.894 686.494 658.767 726.554 644.037C766.614 629.307 757.147 548.004 780.982 534.224C797.401 524.73 805.935 552.963 828.926 545.598" stroke="white" stroke-width="10.368" stroke-miterlimit="10" stroke-linecap="round"/>
<path opacity="0.7" d="M231.806 528.988C255.486 535.306 310.886 546.598 383.479 538.809C384.645 538.655 385.834 538.739 386.962 539.056C388.09 539.373 389.131 539.916 390.012 540.646C390.892 541.377 391.593 542.278 392.063 543.288C392.534 544.297 392.765 545.39 392.738 546.491V651.192C392.685 653.503 391.761 655.721 390.13 657.457C388.498 659.193 386.263 660.336 383.819 660.684C357.972 663.986 281.227 671.05 224.036 647.974C222.573 647.369 221.334 646.373 220.476 645.11C219.619 643.848 219.181 642.376 219.218 640.881V538.249C219.218 532.178 225.757 527.374 231.806 528.988Z" fill="url(#paint2_linear_1_237)"/>
<path d="M19.4036 625.396H22.6573C23.2618 625.396 23.8407 625.171 24.2674 624.772C24.6951 624.373 24.9353 623.832 24.9361 623.267V609.277C24.9353 608.713 24.6951 608.172 24.2674 607.772C23.8407 607.373 23.2618 607.149 22.6573 607.148H19.4036C18.7991 607.149 18.2202 607.373 17.7934 607.772C17.3658 608.172 17.1256 608.713 17.1247 609.277V623.267C17.1256 623.832 17.3658 624.373 17.7934 624.772C18.2202 625.171 18.7991 625.396 19.4036 625.396Z" fill="white"/>
<path d="M33.7629 598.327C32.4616 598.327 31.8105 598.936 31.8105 601.977C31.8105 604.868 28.8154 607.194 26.8885 608.393V623.463C28.9729 624.365 33.1444 625.701 39.621 625.701H41.7037C42.9319 625.701 44.1198 625.297 45.0586 624.558C45.9974 623.818 46.6265 622.792 46.8332 621.662L48.2912 613.754C48.4205 613.055 48.3853 612.339 48.1865 611.655C47.9885 610.97 47.633 610.334 47.1447 609.791C46.6555 609.249 46.0458 608.813 45.3586 608.514C44.6705 608.215 43.9209 608.061 43.1625 608.061H37.0175C37.7091 606.521 38.0426 604.863 37.9942 603.194C37.9942 599.544 35.0651 598.328 33.7629 598.328V598.327Z" fill="white"/>
<path d="M127.827 502.113C110.561 496.424 96.5639 478.73 96.5639 462.594C96.5639 446.457 110.561 437.989 127.827 443.679V424.925C99.9329 415.733 77.3204 429.414 77.3204 455.483C77.3204 481.551 99.9329 510.134 127.827 519.327C154.543 528.13 176.4 515.944 178.2 491.997L158.969 485.66C157.61 500.176 144.191 507.506 127.827 502.113Z" fill="white"/>
<path d="M134.24 421.045V439.799C151.507 445.489 165.504 463.182 165.504 479.318C165.504 480.162 165.457 480.979 165.382 481.78L184.612 488.117C184.692 487.061 184.747 485.99 184.747 484.888C184.747 458.82 162.134 430.237 134.24 421.045Z" fill="#1C85E8"/>
<path d="M127.827 502.113V519.327" stroke="white" stroke-width="2.42819" stroke-miterlimit="10"/>
<path d="M96.5639 462.594L77.3204 456.253" stroke="white" stroke-width="2.42819" stroke-miterlimit="10"/>
<path d="M208.824 465.275L244.531 471.616" stroke="white" stroke-width="10.368" stroke-miterlimit="10" stroke-linecap="round"/>
<path opacity="0.4" d="M208.824 517.562L244.531 523.903" stroke="white" stroke-width="10.368" stroke-miterlimit="10" stroke-linecap="round"/>
<path d="M208.824 491.951L260.124 501.061" stroke="white" stroke-width="10.368" stroke-miterlimit="10" stroke-linecap="round"/>
<g opacity="0.7">
<path d="M852.823 16.7153C821.878 37.9476 765.277 91.4886 641.741 109.277C632.283 110.639 628.742 116.928 628.742 123.877V270.257C628.794 272.288 629.594 274.24 631.007 275.784C632.42 277.328 634.359 278.371 636.498 278.735C667.658 283.637 787.66 255.03 859.422 197.434C866.276 191.933 866.276 182.705 866.276 180.787V24.0184C866.276 17.5143 858.12 13.0815 852.823 16.7153Z" fill="url(#paint3_linear_1_237)"/>
</g>
<path d="M645.075 135.362V225.901C645.075 226.69 645.264 227.467 645.628 228.178C645.992 228.888 646.524 229.513 647.181 230.007C647.839 230.499 648.607 230.848 649.428 231.026C650.25 231.204 651.103 231.207 651.927 231.035C669.573 227.342 717.307 216.663 747.451 203.373C748.419 202.947 749.228 202.273 749.8 201.431C750.363 200.589 750.671 199.613 750.662 198.617V110.448C750.671 109.566 750.434 108.699 749.976 107.924C749.527 107.15 748.876 106.496 748.075 106.02C747.284 105.544 746.377 105.262 745.436 105.2C744.494 105.138 743.553 105.299 742.691 105.667C725.894 112.897 685.526 128.691 650.415 130.112C648.973 130.176 647.613 130.758 646.619 131.736C645.624 132.714 645.071 134.013 645.075 135.362Z" fill="white"/>
<path d="M649.439 211.327V220.85C649.439 221.571 649.616 222.282 649.959 222.929C650.301 223.575 650.797 224.139 651.41 224.576C652.024 225.014 652.737 225.313 653.494 225.45C654.252 225.589 655.033 225.561 655.776 225.372L708.578 211.881C709.414 211.668 710.171 211.259 710.787 210.692C711.403 210.124 711.843 209.42 712.08 208.643C712.318 207.868 712.336 207.049 712.133 206.265C711.931 205.481 711.517 204.759 710.937 204.169L682.623 175.704C682.112 175.194 681.496 174.795 680.801 174.538C680.106 174.281 679.358 174.171 678.614 174.218C677.87 174.265 677.146 174.467 676.495 174.808C675.844 175.15 675.283 175.623 674.853 176.193L650.356 208.624C649.759 209.415 649.439 210.359 649.439 211.327Z" fill="#1C85E8"/>
<path opacity="0.6" d="M703.273 188.992L719.119 204.706C719.63 205.211 720.289 205.563 721.011 205.715C721.732 205.868 722.489 205.815 723.184 205.562C727.865 203.854 738.379 199.991 743.703 197.851C744.371 197.581 744.934 197.136 745.339 196.568C745.735 195.999 745.946 195.334 745.946 194.654V179.931C745.946 179.179 745.682 178.448 745.207 177.847L722.929 149.957C722.524 149.457 721.988 149.065 721.372 148.825C720.756 148.585 720.078 148.504 719.418 148.592C718.759 148.68 718.134 148.931 717.606 149.322C717.087 149.712 716.691 150.226 716.453 150.811L702.499 185.373C702.252 185.984 702.191 186.647 702.332 187.287C702.463 187.926 702.798 188.517 703.273 188.992Z" fill="#1C85E8"/>
<path d="M689.362 164.456C694.061 164.456 697.871 160.898 697.871 156.507C697.871 152.116 694.061 148.557 689.362 148.557C684.664 148.557 680.854 152.116 680.854 156.507C680.854 160.898 684.664 164.456 689.362 164.456Z" fill="#FEBB94"/>
<path d="M775.193 102.712C797.022 92.3667 818.033 80.5713 838.059 67.4184" stroke="white" stroke-width="10.368" stroke-miterlimit="10" stroke-linecap="round"/>
<path d="M775.193 137.054C775.193 137.054 789.499 130.538 809.129 119.408" stroke="white" stroke-width="10.368" stroke-miterlimit="10" stroke-linecap="round"/>
<path d="M775.193 170.63C797.022 160.283 818.033 148.489 838.059 135.336" stroke="white" stroke-width="10.368" stroke-miterlimit="10" stroke-linecap="round"/>
<path d="M775.193 208.326C797.022 197.979 818.033 186.185 838.059 173.032" stroke="white" stroke-width="10.368" stroke-miterlimit="10" stroke-linecap="round"/>
<path d="M657.208 257.146C661.499 257.146 664.978 253.896 664.978 249.886C664.978 245.876 661.499 242.624 657.208 242.624C652.917 242.624 649.439 245.876 649.439 249.886C649.439 253.896 652.917 257.146 657.208 257.146Z" fill="white"/>
<path d="M702.261 245.399C706.546 245.399 710.03 242.148 710.03 238.138C710.03 234.128 706.546 230.877 702.261 230.877C697.967 230.877 694.492 234.128 694.492 238.138C694.492 242.148 697.967 245.399 702.261 245.399Z" fill="white"/>
<path d="M742.893 232.428C747.187 232.428 750.662 229.177 750.662 225.167C750.662 221.157 747.187 217.906 742.893 217.906C738.608 217.906 735.124 221.157 735.124 225.167C735.124 229.177 738.608 232.428 742.893 232.428Z" fill="white"/>
</g>
<defs>
<linearGradient id="paint0_linear_1_237" x1="367.497" y1="-628.923" x2="645.045" y2="1212.57" gradientUnits="userSpaceOnUse">
<stop stop-color="white"/>
<stop offset="1" stop-color="#94B9FF"/>
</linearGradient>
<linearGradient id="paint1_linear_1_237" x1="523.768" y1="384.258" x2="542.696" y2="664.529" gradientUnits="userSpaceOnUse">
<stop stop-color="white"/>
<stop offset="1" stop-color="#94B9FF"/>
</linearGradient>
<linearGradient id="paint2_linear_1_237" x1="301.659" y1="528.35" x2="326.151" y2="817.302" gradientUnits="userSpaceOnUse">
<stop stop-color="white"/>
<stop offset="1" stop-color="#94B9FF"/>
</linearGradient>
<linearGradient id="paint3_linear_1_237" x1="718.864" y1="-313.509" x2="875.075" y2="558.372" gradientUnits="userSpaceOnUse">
<stop stop-color="white"/>
<stop offset="1" stop-color="#94B9FF"/>
</linearGradient>
</defs>
</svg>
